<svg xmlns="http://www.w3.org/2000/svg" viewBox="0 0 32 32">
  <defs>
    <linearGradient id="g" x1="0%" y1="0%" x2="100%" y2="100%">
      <stop offset="0%" stop-color="#7c3aed"/>
      <stop offset="100%" stop-color="#f59e0b"/>
    </linearGradient>
  </defs>
  <rect width="32" height="32" rx="8" fill="url(#g)"/>
  <path d="M16 6c-2.5 0-4.5 2-4.5 4.5S13.5 15 16 15s4.5-2 4.5-4.5S18.5 6 16 6zm0 7c-1.4 0-2.5-1.1-2.5-2.5S14.6 8 16 8s2.5 1.1 2.5 2.5S17.4 13 16 13z" fill="white"/>
  <path d="M22 22c0-3.3-2.7-6-6-6s-6 2.7-6 6h12zm-10 0c0-2.2 1.8-4 4-4s4 1.8 4 4H12z" fill="white"/>
</svg>
